<svg width="100.00000000000001" height="100.00000000000001" xmlns="http://www.w3.org/2000/svg">
 <defs>
  <linearGradient id="svg_9" x1="0" y1="0" x2="1" y2="1">
   <stop stop-color="#ff0000" offset="0"/>
   <stop stop-color="#00ffff" offset="1"/>
  </linearGradient>
 </defs>
 <g>
  <title>background</title>
  <rect x="-1" y="-1" width="26.9996" height="26.9996" id="canvas_background" fill="none"/>
 </g>
 <g>
  <title>Layer 1</title>
  <path d="m50,5.4c-18.2,0 -32.9,14.7 -32.9,32.9c0,3.9 0.7,7.6 1.9,11c2.6,7.4 7.8,13.5 14.4,17.4l16.6,27.9l16.1,-27.7c10,-5.6 16.7,-16.3 16.7,-28.6c0.1,-18.2 -14.6,-32.9 -32.8,-32.9zm0,59c-14.6,0 -26.4,-11.8 -26.4,-26.4s11.8,-26.4 26.4,-26.4s26.4,11.8 26.4,26.4s-11.8,26.4 -26.4,26.4z" id="svg_7" fill="#000000" stroke="#ffffff" stroke-width="6"/>
  <ellipse fill="#ffffff" stroke="null" stroke-width="null" stroke-opacity="null" cx="49.874994" cy="37.609773" id="svg_5" rx="29.749524" ry="29.749524"/>
  <path d="m50,5.4c-18.2,0 -32.9,14.7 -32.9,32.9c0,3.9 0.7,7.6 1.9,11c2.6,7.4 7.8,13.5 14.4,17.4l16.6,27.9l16.1,-27.7c10,-5.6 16.7,-16.3 16.7,-28.6c0.1,-18.2 -14.6,-32.9 -32.8,-32.9zm0,59c-14.6,0 -26.4,-11.8 -26.4,-26.4s11.8,-26.4 26.4,-26.4s26.4,11.8 26.4,26.4s-11.8,26.4 -26.4,26.4z" id="svg_1" fill="url(#svg_9)" stroke="#ffffff" stroke-width="0"/>
  <path d="m67.2,23.7c-3.9,-4.5 -10.1,-6.7 -18.5,-6.7c-7.3,0 -12.8,2.3 -16.2,6.8c-2.9,3.7 -3.8,8.4 -4,12.3c1.7,0.1 4.7,0.1 6.3,-0.7c0.5,-0.2 1.1,0 1.3,0.4c0.2,0.5 0,1.1 -0.4,1.3c-1.5,0.8 -3.7,1 -5.4,1c-0.7,0 -1.3,0 -1.8,0c0,1.2 0.1,2.3 0.2,3.2c2.1,0.1 5.9,0.2 8.1,-1.1c0.4,-0.3 1.1,-0.1 1.3,0.3c0.3,0.4 0.1,1.1 -0.3,1.3c-1.9,1.2 -4.7,1.5 -7,1.5c-0.6,0 -1.3,0 -1.8,0c0.1,0.8 0.2,1.3 0.3,1.4l0.1,0.3l0.1,0.2c0,0 2.9,3.2 7.8,3.2c0.6,0 1.2,0 1.8,-0.1c1.2,1.4 5.5,6.1 11.6,6.3l0.5,4.2l0,0.2c0.2,0.8 1,2 2.4,2c0.1,0 0.3,0 0.5,0c2.1,-0.4 2.1,-1.9 2.1,-2.6c0,-0.3 -0.1,-1.5 -0.2,-3.3c0,-0.8 -0.1,-1.6 -0.1,-2.2c0,-0.2 0.1,-0.5 0.1,-0.8c0,-0.4 -0.1,-0.8 -0.2,-1.1c0,-2.1 0,-4.1 0,-4.9l0.2,0l0.2,0c0.5,-0.1 2,-1 3,-5.1l12,-1.2l0.1,-1c0.1,-0.6 1.3,-8.8 -4.1,-15.1zm-27.2,1.3c-0.1,-0.7 0.3,-1.4 1,-1.5l6.5,-1.4c0.7,-0.1 1.4,0.3 1.5,1c0.1,0.7 -0.3,1.4 -1,1.5l-6.4,1.4c-0.1,0 -0.2,0 -0.3,0c-0.6,0 -1.1,-0.4 -1.3,-1zm0.9,22.9c0.6,-0.2 1.3,-0.5 2.1,-0.8c1.1,0.9 4.2,3.3 7.2,3.9c-0.1,0.3 -0.1,0.6 -0.1,0.9c0,0.3 0,0.7 0.2,1c-4.6,-0.3 -7.9,-3.4 -9.4,-5zm3.4,-1.7l1.1,-5.5l0,-0.1c0,0 0.2,-2.8 2.1,-2.8c1.7,0 2.2,1.5 2.3,1.9l0.2,6.3l0.5,0c0,0.9 0,2.2 0,3.6c-2.2,-0.4 -4.9,-2.4 -6.2,-3.4zm7.8,-0.3l2.1,0c0,0.8 0,1.9 0,3.3c-0.3,-0.2 -0.7,-0.3 -1.2,-0.3c-0.3,0 -0.6,0 -0.8,0.1c-0.1,-1.1 -0.1,-2.3 -0.1,-3.1zm1.8,13.4c-0.7,0.1 -0.9,-0.4 -1,-0.7l-0.5,-3.6c0.2,0 0.4,0 0.6,0c0.5,0 1,-0.1 1.5,-0.4c0,0.1 0,0.3 0,0.4c0.1,1.3 0.2,2.9 0.2,3.2c0,0.7 0,0.9 -0.8,1.1zm7.1,-34.2c-0.1,0.6 -0.7,1 -1.3,1c-0.1,0 -0.2,0 -0.3,0l-6.9,-1.6c-0.7,-0.1 -1.1,-0.9 -0.9,-1.6c0.1,-0.7 0.9,-1.1 1.6,-0.9l6.9,1.6c0.6,0.1 1,0.8 0.9,1.5z" id="svg_2" fill="url(#svg_9)"/>
 </g>
</svg>